Coordinates
version=1
nRows=10
nColumns=33
inDegrees=yes

Units are S.I. units (second, meters, Newtons, ...)
Angles are in degrees.

endheader
time	ground_thorax_rot_x	ground_thorax_rot_y	ground_thorax_rot_z	ground_thorax_tx	ground_thorax_ty	ground_thorax_tz	clav_prot_r	clav_elev_r	scapula_abduction_r	scapula_elevation_r	scapula_upward_rot_r	scapula_winging_r	shoulder_elv_r	plane_of_elev_r	axial_rot_r	elbow_flexion_r	pro_sup_r	wrist_flex_r	wrist_dev_r	clav_prot_l	clav_elev_l	scapula_abduction_l	scapula_elevation_l	scapula_upward_rot_l	scapula_winging_l	shoulder_elv_l	plane_of_elev_l	axial_rot_l	elbow_flexion_l	pro_sup_l	wrist_flex_l	wrist_dev_l
     11.86000000	     33.95483734	     17.73769772	     27.69332317	     13.75715462	    822.22062709	    -49.76660525	     12.37162524	     38.43029104	     31.22916150	     45.00000000	    -32.93940154	   1357.20333039	   1147.66484595	     23.22685752	   -179.99999979	   1437.18672476	    520.58163540	     14.11373462	     15.50727922	     -7.86475683	    -45.00000000	    -45.00000000	     45.00000000	    -45.00000000	   5132.36549497	  -3509.23441523	     18.23124048	   -179.99999979	   2160.00700071	   -170.30719590	     12.74036535	    -16.17543678
     11.87000000	     34.04013407	     17.74462390	     27.56833594	     16.07472960	    821.36225436	    -49.58032305	     12.31672412	     38.53246130	     31.32712230	     45.00000000	    -32.64675033	   1357.29518389	   1147.55021048	     23.24805807	   -179.99999979	   1437.19297981	    521.13771941	     14.08133788	     15.47877534	     -7.94659453	    -45.00000000	    -45.00000000	     45.00000000	    -45.00000000	   5132.12696819	  -3509.30628902	     18.20503404	   -179.99999979	   2159.95630412	   -170.23925370	     12.75882016	    -16.12173920
     11.88000000	     34.16859744	     17.77327502	     27.38388039	     18.37278684	    820.49038970	    -49.39768277	     12.35800229	     38.71675363	     31.50409772	     45.00000000	    -32.27426051	   1357.34911862	   1147.41515482	     23.14374866	   -179.99999979	   1437.26379403	    521.71932090	     14.02596234	     15.46495168	     -8.09374343	    -45.00000000	    -45.00000000	     45.00000000	    -45.00000000	   5131.79901394	  -3509.33149832	     18.19790116	   -179.99999979	   2159.92656799	   -170.18297622	     12.76240217	    -16.05869126
     11.89000000	     33.94962920	     18.09699594	     27.76808517	     20.64860858	    819.60580428	    -49.21978112	     11.46187590	     38.38516561	     31.34558715	     45.00000000	    -32.47086469	   1358.13042106	   1147.72374480	     22.62383177	   -179.99999979	   1437.11129317	    522.18885170	     13.94897199	     15.60493365	     -7.83135724	    -45.00000000	    -45.00000000	     45.00000000	    -45.00000000	   5131.80941738	  -3509.37762347	     18.25359848	   -179.99999979	   2160.22591020	   -170.06421445	     13.02053806	    -15.82690448
     11.90000000	     34.21188908	     17.98135529	     27.33861312	     22.90936622	    818.70431015	    -49.04608024	     12.02940517	     38.69857015	     31.53705041	     45.00000000	    -32.12883759	   1357.84956275	   1147.43871649	     22.94266153	   -179.99999979	   1437.13085748	    522.63517058	     13.90350985	     15.54041798	     -8.10549471	    -45.00000000	    -45.00000000	     45.00000000	    -45.00000000	   5131.44009069	  -3509.48304731	     18.23805078	   -179.99999979	   2160.02193519	   -170.00163633	     12.93662520	    -15.86216972
     11.91000000	     34.52477022	     17.84720181	     26.90929013	     25.15233402	    817.78545058	    -48.87620402	     12.32875304	     39.08570302	     31.91219308	     45.00000000	    -31.37067975	   1357.57348644	   1147.04322487	     23.00765844	   -179.99999979	   1437.35102924	    523.26336649	     13.87105432	     15.39440292	     -8.43018392	    -45.00000000	    -45.00000000	     45.00000000	    -45.00000000	   5130.99147191	  -3509.53160926	     18.11876172	   -179.99999979	   2159.90329204	   -169.98634978	     12.81740852	    -15.87593906
     11.92000000	     34.58003766	     17.93736212	     26.82430037	     27.37254161	    816.84956877	    -48.70960961	     12.24321208	     39.11925064	     31.98069907	     45.00000000	    -31.28687139	   1357.65578155	   1146.95718796	     23.04825759	   -179.99999979	   1437.38210353	    523.86970271	     13.84571306	     15.35157586	     -8.47467711	    -45.00000000	    -45.00000000	     45.00000000	    -45.00000000	   5130.79786731	  -3509.60632465	     18.13998690	   -179.99999979	   2159.91464155	   -169.98004630	     12.86713687	    -15.80849933
     11.93000000	     34.69163301	     17.97211615	     26.65703095	     29.57095722	    815.89273856	    -48.54477423	     12.28077210	     39.30231203	     32.12754937	     45.00000000	    -30.90188209	   1357.71415862	   1146.80202177	     22.96920314	   -179.99999979	   1437.47658046	    524.48177042	     13.80444644	     15.30086999	     -8.62467987	    -45.00000000	    -45.00000000	     45.00000000	    -45.00000000	   5130.51348344	  -3509.66798315	     18.06377148	   -179.99999979	   2159.85687364	   -169.97809769	     12.86392394	    -15.77001600
     11.94000000	     34.79734673	     18.00830535	     26.47764959	     31.74167592	    814.91445403	    -48.38092842	     12.31329408	     39.46172870	     32.26271954	     45.00000000	    -30.59374929	   1357.79459723	   1146.66154781	     22.91468018	   -179.99999979	   1437.56933712	    525.11096836	     13.76336275	     15.25537736	     -8.76039779	    -45.00000000	    -45.00000000	     45.00000000	    -45.00000000	   5130.23880484	  -3509.71546558	     18.01977012	   -179.99999979	   2159.84550906	   -169.98855327	     12.87690659	    -15.71291653
     11.95000000	     34.92776050	     17.94973506	     26.21054280	     33.87966049	    813.91408785	    -48.21759573	     12.37987401	     39.68228766	     32.41272548	     45.00000000	    -30.21407600	   1357.91250989	   1146.48875755	     22.82901409	   -179.99999979	   1437.61432102	    525.79087365	     13.72643269	     15.25335808	     -8.94169269	    -45.00000000	    -45.00000000	     45.00000000	    -45.00000000	   5129.92377615	  -3509.69491068	     17.96842058	   -179.99999979	   2159.84608612	   -170.03429730	     12.88261048	    -15.64118416
